<svg width="256" height="93" viewBox="0 0 256 93" fill="none" xmlns="http://www.w3.org/2000/svg">
<path d="M20.5 50.5C19.3 42.5 9.83331 43.0001 5.49998 44.5001C-2.50002 54.5003 -2.09808e-05 56.5 9.49998 74.5C16.7 88.9 43.8333 92.1667 56.5 92C67.6666 91 91.4 84.3 97 65.5001C102.6 46.7002 116.667 39.0001 123 37.5C143.5 41.5 137.5 47.5002 147 56.5C154.6 63.6999 157.333 64.5 159.5 65.5001C183.5 77.5002 201.833 67.1667 208 60.5C212 56.3333 220.5 45.9 222.5 37.5C224.5 29.1 239.667 23 247 21C253.833 14 262.8 0.100028 244 0.500028C220.5 1.00003 219 11.5 217.5 10C216.3 8.8 203.667 27.8333 197.5 37.5C187.5 50.7 180.667 50 178.5 48C172 51.4999 157 29.5 147 21C139 14.2 124 14.1667 117.5 15C83.5 22 84.5 44.5001 74 56.5C65.6 66.1 61.8333 66.5 61 65.5001C46.5 71.5001 22 60.5 20.5 50.5Z" fill="#C5672B"/>
</svg>
